<svg id="icon" xmlns="http://www.w3.org/2000/svg" viewBox="0 0 32 32"><defs><style>.cls-1{fill:none;}</style></defs><title>plane</title><path d="M17.25,29.37,22,20h4a4,4,0,0,0,0-8H22L17.25,2.63A1,1,0,0,0,16.32,2h-5a1,1,0,0,0-1,1,.93.93,0,0,0,0,.29L14,12H9L7.28,8.55A1,1,0,0,0,6.38,8H3A1,1,0,0,0,2,9a1.31,1.31,0,0,0,0,.28L4,16,2,22.72A1.31,1.31,0,0,0,2,23a1,1,0,0,0,1,1H6.38a1,1,0,0,0,.9-.55L9,20h5l-3.61,8.71a.93.93,0,0,0-.05.29,1,1,0,0,0,1,1h5A1,1,0,0,0,17.25,29.37ZM12.85,28,17,18H7.76l-2,4H4.33l1.75-6L4.33,10H5.76l2,4H17L12.85,4H15.7l5.07,10H26a2,2,0,0,1,0,4H20.77L15.7,28Z"/><rect id="_Transparent_Rectangle_" data-name=" Transparent Rectangle " class="cls-1" width="32" height="32"/></svg>